<?xml version="1.0" standalone="no"?><!DOCTYPE svg PUBLIC "-//W3C//DTD SVG 1.1//EN" "http://www.w3.org/Graphics/SVG/1.1/DTD/svg11.dtd"><svg t="1611627945345" class="icon" viewBox="0 0 1024 1024" version="1.1" xmlns="http://www.w3.org/2000/svg" p-id="10658" xmlns:xlink="http://www.w3.org/1999/xlink" width="200" height="200"><defs><style type="text/css"></style></defs><path d="M511.574296 1016.94548C312.344934 1016.94548 150.212614 854.813161 150.212614 655.583799 150.212614 463.408956 477.882884 33.691412 491.748664 15.568595c9.365483-12.284594 30.042523-12.284594 39.529635 0C545.144079 33.691412 872.935978 463.408956 872.935978 655.583799c0 199.229362-162.13232 361.361682-361.361682 361.361681z m0-944.819099C440.177693 168.82195 199.83751 505.492814 199.83751 655.583799c0 171.862692 139.874094 311.615156 311.736786 311.615156S823.311082 827.44649 823.311082 655.583799C823.189452 505.492814 582.970899 168.82195 511.574296 72.126381z m0 0" p-id="10659"></path><path d="M530.91341 922.317615c-10.581779 0-20.312151-6.81126-23.717781-17.39304-4.135408-13.136002 3.040741-27.001782 16.176743-31.258819 99.614681-31.745338 176.119729-110.682979 204.945956-211.149068 3.770519-13.257632 17.636299-21.041929 30.7723-17.02815 13.136002 3.770519 20.79867 17.514669 17.028151 30.772301-33.326523 116.521202-122.237795 208.108326-237.664331 244.840479-2.554223 0.851408-4.986816 1.216296-7.541038 1.216297z m0 0" p-id="10660"></path></svg>