<svg t="1612248191917" class="icon" viewBox="0 0 1024 1024" version="1.1" xmlns="http://www.w3.org/2000/svg" p-id="1060" width="200" height="200"><path d="M512.073143 1002.666667c-212.64579 0-386.072381-173.416838-386.072381-386.072381 0-263.509333 269.638705-507.411505 351.753752-575.439238a52.814019 52.814019 0 0 1 68.022857 0c82.729448 68.637257 351.758629 311.929905 351.758629 575.439238 0.604648 213.265067-172.202667 386.072381-385.462857 386.072381z m0-904.513829C443.435886 156.369676 191.570895 385.560381 191.570895 617.208686c0 177.093486 144.008533 320.502248 320.502248 320.502247 176.488838 0 320.507124-144.01341 320.507124-320.502247 0.609524-232.262705-251.874743-461.45341-320.507124-519.055848z" p-id="1061"></path><path d="M449.565257 862.334781c-3.062248 0-6.743771-0.609524-9.806019-1.223924-95.60259-30.632229-167.297219-110.309181-187.518781-208.354743-3.676648-17.77859 7.962819-34.928152 25.122133-38.6048 17.773714-3.681524 34.933029 7.967695 38.6048 25.117257 15.32099 74.771505 70.470705 136.045714 143.403886 158.72 17.159314 5.519848 26.955581 23.893333 21.445486 41.057524-4.900571 14.097067-17.768838 23.288686-31.251505 23.288686z" p-id="1062"></path></svg>